<svg width="29" height="28" viewBox="0 0 29 28" fill="none" xmlns="http://www.w3.org/2000/svg">
<g id="Logo" clip-path="url(#clip0_8_384)">
<path id="Vector" fill-rule="evenodd" clip-rule="evenodd" d="M7.74503 0.0785522C11.5893 0.0785522 14.7057 3.19496 14.7057 7.03925V0.0785522H21.6664C25.5107 0.0785522 28.6271 3.19496 28.6271 7.03925C28.6271 10.8835 25.5107 13.9999 21.6664 13.9999C25.5107 13.9999 28.6271 17.1164 28.6271 20.9606C28.6271 22.8695 27.8587 24.5989 26.6144 25.8564L26.5884 25.8826L26.5653 25.9056C25.3075 27.1517 23.5768 27.9213 21.6664 27.9213C19.769 27.9213 18.0489 27.1621 16.7932 25.9309C16.7769 25.9149 16.7607 25.8988 16.7444 25.8826C16.7292 25.8674 16.714 25.8521 16.6989 25.8367C15.4661 24.5808 14.7057 22.8595 14.7057 20.9606C14.7057 24.8049 11.5893 27.9213 7.74503 27.9213C3.90074 27.9213 0.784332 24.8049 0.784332 20.9606V13.9999H7.74503C3.90074 13.9999 0.784332 10.8835 0.784332 7.03925C0.784332 3.19496 3.90074 0.0785522 7.74503 0.0785522ZM13.3136 7.03925C13.3136 10.1147 10.8205 12.6078 7.74503 12.6078V1.47069C10.8205 1.47069 13.3136 3.96382 13.3136 7.03925ZM27.235 20.9606C27.235 17.8852 24.7419 15.3921 21.6664 15.3921C18.591 15.3921 16.0979 17.8852 16.0979 20.9606H27.235ZM2.17647 15.3921V20.9606C2.17647 24.0361 4.6696 26.5292 7.74503 26.5292C10.8205 26.5292 13.3136 24.0361 13.3136 20.9606V15.3921H2.17647ZM16.0979 12.6078V1.47069H21.6664C24.7419 1.47069 27.235 3.96382 27.235 7.03925C27.235 10.1147 24.7419 12.6078 21.6664 12.6078H16.0979Z" fill="#263238"/>
</g>
<defs>
<clipPath id="clip0_8_384">
<rect width="27.8428" height="27.8428" fill="white" transform="translate(0.784332 0.0785522)"/>
</clipPath>
</defs>
</svg>
