<svg width="28" height="20" viewBox="0 0 28 20" fill="none" xmlns="http://www.w3.org/2000/svg">
<g id="Logo" clip-path="url(#clip0_8_387)">
<path id="Vector" fill-rule="evenodd" clip-rule="evenodd" d="M6.99987 3.01244L0.0490723 9.89335C1.43936 11.2697 3.02755 12.4296 4.75912 13.3371C5.23774 14.5939 5.98796 15.7726 7.00977 16.7841C10.8541 20.5897 17.0869 20.5897 20.9312 16.7841C21.953 15.7726 22.7032 14.5939 23.1818 13.337C24.9134 12.4296 26.5016 11.2697 27.8919 9.89335L20.9467 3.01803C20.9415 3.01289 20.9364 3.00774 20.9312 3.00261C17.0869 -0.803034 10.8541 -0.803034 7.00977 3.00261C7.00647 3.00589 7.00317 3.00916 6.99987 3.01244ZM20.2661 14.5785C18.2405 15.2552 16.1141 15.6018 13.9705 15.6018C11.8268 15.6018 9.70049 15.2552 7.67493 14.5785C7.8944 14.8668 8.1367 15.1434 8.40191 15.4059C11.4774 18.4505 16.4636 18.4505 19.539 15.4059C19.8042 15.1434 20.0466 14.8668 20.2661 14.5785ZM8.54467 4.24293C9.06693 4.5845 9.62226 4.87679 10.2033 5.11508C11.3976 5.60481 12.6777 5.85687 13.9705 5.85687C15.2632 5.85687 16.5433 5.60481 17.7376 5.11508C18.3187 4.87679 18.874 4.5845 19.3963 4.24292C16.3592 1.38218 11.5817 1.38219 8.54467 4.24293Z" fill="#3B4158"/>
</g>
<defs>
<clipPath id="clip0_8_387">
<rect width="27.8428" height="19.4899" fill="white" transform="translate(0.0490723 0.148376)"/>
</clipPath>
</defs>
</svg>
