<svg width="39" height="22" viewBox="0 0 39 22" fill="none" xmlns="http://www.w3.org/2000/svg">
<g id="Logo" clip-path="url(#clip0_8_390)">
<path id="Vector" d="M38.7222 7.87909C38.7262 7.85006 38.7262 7.82072 38.7222 7.7917C38.726 7.76805 38.726 7.74393 38.7222 7.72023L38.4386 5.6789C38.3977 5.43468 38.2883 5.20642 38.1226 5.01964L38.074 4.96404L37.9849 4.87666L33.0751 0.730472L33.2128 0.865512C33.1002 0.73334 32.9587 0.62762 32.7989 0.55614C32.6391 0.484659 32.4649 0.449234 32.2892 0.452478H30.7985C30.5561 0.447769 30.3192 0.523329 30.126 0.666939C29.9231 0.524194 29.6789 0.449021 29.4292 0.452478H27.9384C27.7429 0.449368 27.5501 0.49694 27.3793 0.59039C27.2086 0.683841 27.0661 0.819852 26.9663 0.984649C26.8123 1.22003 26.7544 1.50362 26.8042 1.77894L26.9906 3.06568C26.8671 2.99708 26.7274 2.96148 26.5854 2.96244H19.3666C19.1076 2.96403 18.8545 3.03845 18.6374 3.17689C18.4274 3.30574 18.2589 3.49024 18.1513 3.70906L17.5922 3.24043C17.3722 3.04084 17.0818 2.93267 16.7821 2.93861H5.45552C5.1956 2.94325 4.94145 3.01443 4.71826 3.14512C4.41292 3.32033 4.18914 3.60522 4.0944 3.93941L0.497127 15.7346C0.429913 15.929 0.423302 16.1386 0.478138 16.3366C0.532975 16.5347 0.646777 16.7123 0.805005 16.8466C0.846235 16.8809 0.889526 16.9127 0.93464 16.9419C0.93464 16.9419 0.86171 16.8942 0.8212 16.8546L5.73101 21.0087C5.9387 21.1962 6.21025 21.3009 6.49254 21.3026H17.9082C18.1689 21.2959 18.4233 21.222 18.6455 21.0881C18.7712 21.0208 18.8837 20.932 18.9777 20.826L19.0182 20.7704L19.083 20.691L19.1316 20.6036L19.6664 21.0564C19.8711 21.2364 20.1367 21.3354 20.4117 21.3344H31.8517C32.1121 21.3258 32.366 21.252 32.589 21.1199C32.7119 21.0484 32.8237 20.9601 32.9212 20.8578L32.9617 20.8022L33.0265 20.7228C33.0609 20.6725 33.0908 20.6194 33.1156 20.5639C33.1421 20.5157 33.1638 20.4652 33.1804 20.413L36.4617 9.64242V9.5471C36.4657 9.51014 36.4657 9.47286 36.4617 9.4359V9.36443C36.4656 9.34073 36.4656 9.31661 36.4617 9.29291C36.4654 9.24269 36.4654 9.19226 36.4617 9.14198H37.515C37.6066 9.15023 37.6988 9.15023 37.7904 9.14198H37.8634C37.9227 9.12465 37.9798 9.10064 38.0335 9.07052H38.1146L38.2604 8.95932L38.3252 8.91165L38.4386 8.76866V8.72105L38.5196 8.586C38.5151 8.55974 38.5151 8.53285 38.5196 8.50659C38.5153 8.4937 38.5153 8.47976 38.5196 8.46687C38.5368 8.4203 38.5504 8.37248 38.5601 8.32388C38.5564 8.30822 38.5564 8.29187 38.5601 8.27621C38.5562 8.25256 38.5562 8.22839 38.5601 8.20474C38.5601 8.20474 38.7222 7.89496 38.7222 7.87909Z" fill="black"/>
<path id="Vector_2" d="M17.1142 3.84413C17.1572 3.88226 17.1873 3.9324 17.2003 3.98779C17.2134 4.04318 17.2088 4.10115 17.1872 4.1539L13.598 15.9412C13.5528 16.0698 13.4604 16.1774 13.3388 16.243C13.2398 16.3079 13.1253 16.3462 13.0065 16.3542H1.599C1.50158 16.3496 1.40928 16.31 1.33973 16.243C1.29836 16.2055 1.26932 16.1567 1.25633 16.103C1.24334 16.0492 1.247 15.9929 1.26682 15.9412L4.86409 4.1539C4.90554 4.02358 4.99509 3.91312 5.11525 3.84413C5.21583 3.78389 5.32982 3.74846 5.44743 3.74087H16.855C16.9516 3.74178 17.0443 3.7787 17.1142 3.84413ZM11.1593 13.5662L13.3063 6.52882H7.29469L5.15575 13.5662H11.1593ZM28.0033 3.96327C28.0422 4.00761 28.0908 4.04277 28.1456 4.06615C28.2003 4.08953 28.2596 4.10052 28.3193 4.09829H29.8019C29.8584 4.09884 29.914 4.08526 29.9637 4.05886C30.0133 4.03245 30.0552 3.99408 30.0855 3.94738C30.1118 3.9109 30.1304 3.8696 30.1401 3.82593C30.1499 3.78228 30.1506 3.73714 30.1422 3.69321L29.8505 1.59629C29.8228 1.49924 29.7729 1.40962 29.7047 1.33417C29.6657 1.28983 29.6171 1.25466 29.5624 1.23128C29.5077 1.20791 29.4483 1.19692 29.3887 1.19914H27.9061C27.8496 1.1986 27.7939 1.21218 27.7443 1.23858C27.6947 1.26499 27.6528 1.30335 27.6225 1.35006C27.5658 1.46126 27.5415 1.53274 27.5658 1.59629L27.8655 3.69321C27.8809 3.79532 27.9292 3.88993 28.0033 3.96327ZM32.7105 1.5804C32.6827 1.48335 32.6328 1.39373 32.5647 1.31828C32.5274 1.2741 32.4802 1.23895 32.4268 1.21553C32.3734 1.19211 32.3152 1.18107 32.2568 1.18326H30.766C30.7105 1.1817 30.6556 1.19491 30.6071 1.22148C30.5586 1.24805 30.5184 1.28699 30.4906 1.33417C30.4367 1.40464 30.4133 1.49315 30.4258 1.5804L30.7255 3.67732C30.7443 3.77835 30.7921 3.87203 30.8633 3.94738C30.9029 3.99086 30.9516 4.02543 31.0062 4.04874C31.0608 4.07204 31.1197 4.08353 31.1792 4.0824H32.67C32.7254 4.08312 32.78 4.06957 32.8283 4.04308C32.8767 4.01659 32.9171 3.97812 32.9455 3.9315C32.9737 3.89596 32.9933 3.85468 33.0032 3.8107C33.013 3.76672 33.0126 3.72115 33.0022 3.67732L32.7105 1.5804ZM26.6988 4.75756L26.553 3.72498H19.3666C19.2538 3.73108 19.1446 3.76674 19.0506 3.82824C18.9909 3.86014 18.939 3.90436 18.8984 3.95784C18.8579 4.01132 18.8297 4.07279 18.8157 4.13801L18.2161 6.10784C18.1922 6.15706 18.184 6.2123 18.1927 6.26617C18.2014 6.32005 18.2265 6.37006 18.2647 6.40969C18.333 6.47265 18.4222 6.50935 18.5159 6.51295H27.2498L25.1028 13.5504H16.3932C16.2809 13.5529 16.1715 13.5859 16.0772 13.6456C15.9626 13.717 15.8789 13.8273 15.8422 13.9554L15.2346 15.9253C15.2148 15.9758 15.2096 16.0307 15.2196 16.084C15.2296 16.1373 15.2544 16.1868 15.2913 16.2271C15.3575 16.2943 15.4473 16.3341 15.5425 16.3383H26.9824C27.1007 16.3283 27.2148 16.2901 27.3146 16.2271C27.4342 16.1612 27.524 16.0534 27.5658 15.9253L30.8551 5.1547H27.1526C27.0938 5.15584 27.0355 5.14515 26.9811 5.12329C26.9268 5.10143 26.8776 5.06886 26.8366 5.02761C26.7696 4.95558 26.7222 4.86817 26.6988 4.77344V4.75756Z" fill="white"/>
</g>
<defs>
<clipPath id="clip0_8_390">
<rect width="38.2838" height="20.8821" fill="white" transform="translate(0.44136 0.452271)"/>
</clipPath>
</defs>
</svg>
