<svg width="34" height="21" viewBox="0 0 34 21" fill="none" xmlns="http://www.w3.org/2000/svg">
<g id="Logo" clip-path="url(#clip0_8_394)">
<path id="Vector" d="M31.1151 2.62964C31.1151 2.65317 31.1151 2.68259 31.1089 2.70025C31.0783 2.92973 31.0783 3.15921 31.0966 3.39458C31.1089 3.45342 31.1212 3.51226 31.1703 3.55934C31.2499 3.6476 31.3725 3.62995 31.4216 3.52403C31.4461 3.47108 31.4461 3.41812 31.4338 3.36516C31.3725 3.14156 31.3603 2.90619 31.3542 2.67671C31.3542 2.66494 31.3542 2.64729 31.3542 2.62964C31.4216 2.62375 31.4829 2.61786 31.5381 2.61786C31.581 2.61198 31.6178 2.6061 31.6485 2.58844C31.7404 2.54137 31.7404 2.44134 31.6423 2.39427C31.6055 2.37661 31.5565 2.37073 31.5136 2.37073C31.3603 2.37661 31.207 2.37661 31.0537 2.37661C30.9986 2.37661 30.9434 2.3825 30.8882 2.38838C30.8575 2.39427 30.8208 2.39427 30.7963 2.41192C30.7533 2.42957 30.7288 2.45899 30.7288 2.50018C30.735 2.54137 30.7533 2.56491 30.7963 2.58256C30.8208 2.60021 30.8514 2.6061 30.8821 2.6061C30.9556 2.61198 31.0354 2.62375 31.1151 2.62964ZM32.801 2.90031C32.801 2.90619 32.8071 2.91208 32.8071 2.91208C32.8317 3.07095 32.8562 3.22394 32.8746 3.37693C32.8808 3.42988 32.8869 3.47696 32.9237 3.51815C33.0033 3.61818 33.126 3.60641 33.1811 3.5005C33.2057 3.44754 33.2118 3.39458 33.1995 3.33574C33.1628 3.15921 33.1443 2.98268 33.1076 2.81204C33.083 2.70613 33.0524 2.6061 33.0218 2.51195C33.0033 2.45311 32.9604 2.41192 32.8869 2.40603C32.8133 2.39427 32.7581 2.42957 32.7275 2.48253C32.6907 2.5296 32.66 2.57668 32.6355 2.62964C32.5926 2.72378 32.5558 2.81793 32.5068 2.90619C32.5006 2.92973 32.4945 2.94738 32.4822 2.96503C32.4761 2.95326 32.47 2.94738 32.47 2.94738C32.3903 2.80028 32.3167 2.65317 32.237 2.51195C32.2247 2.50018 32.2186 2.48841 32.2125 2.47664C32.1757 2.42369 32.1328 2.39427 32.0653 2.39427C32.004 2.40015 31.955 2.43546 31.9243 2.48841C31.9121 2.51195 31.9121 2.5296 31.9059 2.55314C31.8814 2.74143 31.8507 2.92973 31.8262 3.11802C31.814 3.22394 31.8078 3.32985 31.8078 3.43577C31.8017 3.4593 31.8078 3.48873 31.8201 3.51226C31.8324 3.55933 31.8691 3.58876 31.9182 3.59464C31.9795 3.60053 32.0224 3.58287 32.0408 3.5358C32.0592 3.5005 32.0653 3.47108 32.0715 3.44166C32.096 3.33574 32.1144 3.23571 32.1328 3.13568C32.145 3.07683 32.1512 3.02976 32.1696 2.96503C32.1818 2.98857 32.1941 3.00622 32.2064 3.02387C32.2615 3.09449 32.3167 3.1651 32.3841 3.22394C32.4516 3.27101 32.5068 3.26513 32.5619 3.21217C32.5742 3.2004 32.5803 3.19452 32.5926 3.18275C32.6478 3.10037 32.7152 3.01799 32.7704 2.93561C32.7827 2.92384 32.7888 2.91208 32.801 2.90031Z" fill="#3A3B7B"/>
<path id="Vector_2" d="M18.6748 2.74524C18.6322 2.85707 18.6241 2.93763 18.6437 3.00459C18.6655 3.09565 18.7219 3.12546 18.7984 3.1023C19.5185 2.9314 21.0976 3.4165 21.6822 3.55171C21.8201 3.5801 21.9323 3.40927 21.8382 3.25612C21.7009 3.10779 20.1225 2.47277 19.5203 2.43815C19.2842 2.42535 18.8622 2.36725 18.6748 2.74524Z" fill="#3A3B7B"/>
<path id="Vector_3" d="M24.8461 0.689607C24.9228 0.732122 24.9657 0.772677 24.9869 0.81799C25.0185 0.877429 25.0018 0.918553 24.9488 0.939538C24.4728 1.16251 23.8394 2.12245 23.5837 2.45353C23.5217 2.52969 23.3788 2.48543 23.3572 2.36018C23.3616 2.21857 23.9231 1.17682 24.2365 0.893082C24.3596 0.782302 24.5631 0.564939 24.8461 0.689607Z" fill="#3A3B7B"/>
<path id="Vector_4" d="M21.0553 0.217099C21.1475 0.150404 21.2434 0.127032 21.2923 0.170375C22.0105 0.759875 22.3913 1.6934 22.6272 2.54802C22.636 2.56793 22.6366 2.5965 22.6295 2.62631C22.6266 2.65179 22.6072 2.6787 22.5764 2.69952C22.5435 2.72251 22.5151 2.72951 22.5018 2.7097C22.1871 2.29879 20.3893 0.700014 21.0553 0.217099Z" fill="#3A3B7B"/>
<path id="Vector_5" d="M5.84681 10.4375C6.01894 10.3145 6.20607 10.2121 6.40409 10.1327C6.61127 10.0758 6.8321 10.0852 7.03321 10.1596C7.23427 10.2339 7.40471 10.369 7.51865 10.5445C7.62059 10.7196 7.66045 10.9217 7.63232 11.1205C7.60418 11.3192 7.50954 11.5037 7.3626 11.6464C7.24871 11.762 7.11939 11.8627 6.9781 11.9459C6.34838 12.3364 5.71305 12.7054 5.07775 13.0959C4.94776 13.1936 4.80985 13.2812 4.66536 13.3579C4.44557 13.4631 4.1944 13.4913 3.95525 13.4376C3.71611 13.3839 3.50405 13.2517 3.35574 13.0638C3.24487 12.9307 3.1513 12.7853 3.07709 12.6305C2.47523 11.4164 1.85107 10.2076 1.27149 8.97199C1.00399 8.43715 0.786653 7.82203 0.574885 7.22833C0.483264 7.05583 0.465373 6.85585 0.52502 6.67087C0.584668 6.4859 0.717148 6.33055 0.894281 6.23788C1.07141 6.14521 1.27922 6.12255 1.47351 6.17466C1.6678 6.22678 1.83325 6.34959 1.93466 6.51695C2.24636 6.91453 2.52229 7.33683 2.75944 7.77927C3.36131 8.84899 3.93532 9.91871 4.51489 10.9564C4.54864 11.0137 4.58585 11.069 4.62635 11.1222C5.06258 10.9461 5.47288 10.716 5.84681 10.4375Z" fill="#3A3B7B"/>
<path id="Vector_6" d="M12.0697 10.0644C10.6933 11.6101 8.3861 11.2197 7.22695 9.22998C6.40216 7.81792 6.25727 5.48589 8.05175 4.015C8.43494 3.70706 8.89314 3.49729 9.38364 3.40525C9.98504 3.3225 10.5983 3.42433 11.1358 3.69619C11.6732 3.96805 12.1074 4.39601 12.3763 4.91894C13.3571 6.63053 13.2178 8.81277 12.0697 10.0644ZM11.5125 6.45936C11.3662 6.03876 11.0729 5.67967 10.6821 5.44309C10.461 5.29183 10.1923 5.21829 9.92134 5.23485C9.65031 5.25141 9.39355 5.35707 9.19417 5.53401C8.39727 6.21332 8.23005 7.82329 8.80963 8.7807C8.88352 8.93683 8.99199 9.07556 9.12757 9.18722C9.26315 9.29889 9.42252 9.38078 9.59451 9.42712C9.7665 9.4735 9.94695 9.48322 10.1233 9.45565C10.2996 9.42803 10.4675 9.36381 10.6153 9.26742C11.0473 8.94596 11.3642 8.50333 11.522 8.00107C11.6798 7.49875 11.6706 6.96176 11.4958 6.46473L11.5125 6.45936Z" fill="#3A3B7B"/>
<path id="Vector_7" d="M17.6872 7.13329C17.5462 7.16237 17.4007 7.16412 17.259 7.13838C17.1174 7.11264 16.9825 7.06002 16.8624 6.98354C16.7573 6.92583 16.6668 6.84651 16.5975 6.75122C16.5281 6.65593 16.4817 6.54711 16.4615 6.43251C16.4412 6.31795 16.4477 6.20051 16.4803 6.08861C16.5131 5.97672 16.5712 5.87317 16.6506 5.78541C16.789 5.60906 16.9854 5.4828 17.2079 5.42706C17.789 5.26521 18.3872 5.16653 18.9912 5.1329C19.124 5.11808 19.2584 5.12886 19.3867 5.1646C19.515 5.20038 19.6346 5.26034 19.7384 5.34109C19.8422 5.42179 19.9282 5.52162 19.9913 5.63466C20.0544 5.7477 20.0933 5.87171 20.1058 5.99938C20.2799 6.62652 20.299 7.28408 20.1615 7.91958C19.66 9.97346 17.9324 10.6795 15.993 10.0216C15.4486 9.84569 14.9713 9.51794 14.6221 9.08023C14.1563 8.5531 13.8261 7.92839 13.658 7.25633C13.5218 6.65786 13.5367 6.03686 13.7015 5.44509C13.8663 4.85332 14.1762 4.30796 14.6054 3.85455C15.0126 3.36175 15.5412 2.97392 16.1435 2.72597C16.5241 2.52464 16.9694 2.46739 17.3918 2.56551C17.4876 2.59096 17.5746 2.64056 17.6437 2.70915C17.7129 2.77774 17.7616 2.86283 17.7849 2.9556C17.8082 3.04837 17.8053 3.14543 17.7763 3.23672C17.7474 3.32802 17.6935 3.41021 17.6203 3.47479C17.4811 3.5957 17.33 3.70319 17.1689 3.79571C16.6734 4.09853 16.2423 4.48874 15.8983 4.94567C15.6728 5.24135 15.5175 5.58089 15.4434 5.94034C15.3692 6.29979 15.378 6.67048 15.4692 7.02635C15.5956 7.51154 15.876 7.94706 16.2717 8.27256C17.4977 9.34232 19.0915 8.30999 18.8129 6.84981C18.4061 6.94611 18.0494 7.04772 17.6872 7.13329Z" fill="#3A3B7B"/>
<path id="Vector_8" d="M25.1772 10.1499C23.366 11.2197 21.3041 10.1499 20.8527 7.90349C20.5239 6.29888 21.148 4.05242 23.3326 3.19663C23.7974 3.01846 24.3015 2.95591 24.7983 3.01477C25.395 3.11962 25.9425 3.4016 26.3634 3.82095C26.7843 4.2403 27.0575 4.77585 27.1444 5.35216C27.5122 7.26162 26.6763 9.29949 25.1772 10.1499ZM25.807 6.55025C25.8064 6.10592 25.6426 5.67596 25.3444 5.3361C25.185 5.12589 24.9545 4.97528 24.6924 4.9099C24.4301 4.84457 24.1525 4.86852 23.9066 4.97776C22.9258 5.38423 22.2347 6.86047 22.4855 7.94629C22.5047 8.11668 22.5624 8.28101 22.6546 8.42777C22.7468 8.57454 22.8713 8.70019 23.0194 8.79599C23.1674 8.89173 23.3356 8.95532 23.5119 8.98225C23.6883 9.00913 23.8686 8.99876 24.0403 8.95183C24.5588 8.778 25.0077 8.45314 25.3244 8.02259C25.6411 7.59203 25.8098 7.07728 25.807 6.55025Z" fill="#3A3B7B"/>
<path id="Vector_9" d="M28.976 10.5993C28.9486 10.795 28.8414 10.9723 28.6778 11.0922C28.5143 11.212 28.3078 11.2647 28.1038 11.2384C27.8999 11.2122 27.7151 11.1092 27.5902 10.9522C27.4653 10.7953 27.4105 10.5971 27.4379 10.4013C27.4652 10.2056 27.5725 10.0283 27.736 9.90839C27.8996 9.78852 28.1061 9.73594 28.31 9.76218C28.514 9.78843 28.6987 9.89133 28.8237 10.0483C28.9485 10.2053 29.0034 10.4035 28.976 10.5993ZM28.4911 3.38385C28.5971 3.22848 28.7526 3.11017 28.9344 3.04655C29.1162 2.98293 29.3145 2.97742 29.4998 3.03084C29.6882 3.07608 29.8547 3.18206 29.9714 3.33103C30.088 3.48002 30.1478 3.66294 30.1407 3.84919C30.1161 4.14793 30.0696 4.44463 30.0014 4.73706C29.8175 5.72659 29.6392 6.71607 29.4441 7.69491C29.355 8.08537 29.2379 8.45977 29.1097 8.85556C29.0651 8.97929 28.9906 9.09109 28.8924 9.18184C28.8313 9.2501 28.7533 9.30245 28.6655 9.33406C28.5778 9.36571 28.4831 9.37558 28.3904 9.36278C28.2976 9.34998 28.2096 9.31493 28.1347 9.26088C28.0598 9.20679 28.0003 9.13545 27.9617 9.05347C27.8955 8.90639 27.8595 8.74834 27.8558 8.58814C27.8558 7.92489 27.8558 7.25632 27.9004 6.5877C27.9762 5.63355 28.1252 4.68603 28.3462 3.75291C28.3723 3.62789 28.4213 3.50834 28.4911 3.3999V3.38385Z" fill="#3A3B7B"/>
<path id="Vector_10" fill-rule="evenodd" clip-rule="evenodd" d="M3.49228 14.8974C3.42648 15.0384 3.40843 15.1955 3.44059 15.3468C3.46198 15.5462 3.50896 15.7423 3.58047 15.9307C3.66975 16.1614 3.76964 16.3895 3.89282 16.6706C3.92115 16.7353 3.95075 16.8028 3.98173 16.8739C4.14784 17.2547 4.35626 17.7415 4.63427 18.446C4.71296 18.6461 4.78284 18.8478 4.8532 19.051C4.88163 19.1331 4.91015 19.2154 4.93935 19.2979C5.04402 19.5914 5.22413 19.855 5.46285 20.0639C5.56422 20.1787 5.69868 20.2624 5.84946 20.3043C6.00317 20.3469 6.16665 20.3442 6.31873 20.2965C6.47081 20.2487 6.60438 20.1582 6.70211 20.0366C6.79792 19.9173 6.85489 19.7736 6.86597 19.6235C6.92812 19.3311 6.90691 19.0279 6.80446 18.746C6.64187 18.2779 6.45665 17.8091 6.24307 17.3506L6.24209 17.3486C5.89072 16.6313 5.53357 15.9189 5.15951 15.2062L5.15671 15.2012C5.04721 15.0156 4.9049 14.8496 4.73618 14.7108C4.62665 14.5868 4.47557 14.5033 4.30872 14.4744C4.13832 14.445 3.96257 14.4747 3.81286 14.5581C3.67123 14.6358 3.55896 14.7545 3.49228 14.8974Z" fill="#3A3B7B"/>
<path id="Vector_11" fill-rule="evenodd" clip-rule="evenodd" d="M8.85883 13.131C8.3079 12.994 7.73254 12.9741 7.17282 13.0725C6.7393 13.1135 6.31293 13.2095 6.01685 13.3996C5.86627 13.4964 5.74452 13.6206 5.6768 13.7785C5.60871 13.9373 5.60001 14.1189 5.65582 14.3212C5.7577 14.6918 5.89001 15.0521 6.02185 15.4113L6.04321 15.4695L6.04373 15.4707C6.4407 16.5142 6.84147 17.5541 7.24587 18.5904C7.29303 18.7537 7.35972 18.9113 7.44459 19.0599L7.44618 19.0626C7.5583 19.2472 7.70211 19.4123 7.87153 19.551C7.95626 19.6273 8.06104 19.68 8.17466 19.7036C8.2894 19.7274 8.40871 19.7205 8.51962 19.6836C8.63057 19.6468 8.72881 19.5814 8.80368 19.4946C8.87734 19.4092 8.92557 19.3064 8.94328 19.1969C9.01638 18.8995 8.99296 18.5878 8.87612 18.3035C8.83967 18.2079 8.81106 18.1101 8.78092 18.0072C8.77087 17.9729 8.76068 17.938 8.74993 17.9024C9.67564 17.5551 10.6606 17.0881 11.007 16.0018C11.1426 15.6264 11.1539 15.2198 11.0393 14.8379C10.9246 14.4557 10.6893 14.1168 10.3658 13.8681C9.92549 13.5198 9.41116 13.2683 8.85883 13.131ZM7.33173 14.4635C7.34995 14.4585 7.36832 14.4538 7.38674 14.4494C7.9894 14.3585 8.60599 14.4796 9.12298 14.7905C9.35082 14.9426 9.44415 15.1116 9.46018 15.2742C9.47673 15.4416 9.41331 15.623 9.2859 15.7973C9.04517 16.1267 8.60585 16.3904 8.20901 16.4395C7.91971 15.8001 7.62593 15.1348 7.33173 14.4635Z" fill="#3A3B7B"/>
<path id="Vector_12" d="M12.5318 11.9605C13.1878 11.6697 14.0005 11.6195 14.6365 11.8239C14.7966 11.8687 14.9356 11.9656 15.0296 12.0979C15.123 12.2294 15.166 12.3879 15.1516 12.5464C15.1507 12.6493 15.1244 12.7505 15.0749 12.8418C15.0245 12.9347 14.9516 13.0146 14.8622 13.0748C14.7729 13.135 14.6697 13.1736 14.5615 13.1874C14.4533 13.2013 14.3432 13.1899 14.2405 13.1543L14.2327 13.1516L14.2254 13.1479C14.1729 13.1215 14.1171 13.1016 14.0593 13.0887L14.0557 13.0879C13.6083 12.9738 13.1863 13.1628 13.0322 13.395C12.9587 13.5057 12.9496 13.6175 13.0108 13.7191C13.0764 13.828 13.2372 13.9502 13.5626 14.0372C13.6521 14.0608 13.7439 14.0836 13.8369 14.1067C14.0942 14.1706 14.3617 14.2371 14.6203 14.3292L14.6212 14.3295C15.8142 14.7652 16.2585 15.6674 16.1064 16.5161C15.9559 17.3553 15.2257 18.1191 14.1275 18.2992C13.7279 18.3842 13.3121 18.3677 12.9211 18.2512C12.5292 18.1344 12.1759 17.9212 11.8964 17.6327L11.8891 17.6252C11.8009 17.5165 11.7415 17.3888 11.7152 17.2533C11.691 17.1311 11.7037 17.0047 11.7519 16.8892C11.7997 16.7743 11.8807 16.6749 11.9851 16.6024C12.0955 16.5203 12.2285 16.471 12.3677 16.4607C12.5065 16.4505 12.6453 16.4795 12.7672 16.544C12.8889 16.6004 13.0021 16.6724 13.1037 16.758L13.1056 16.7595C13.2853 16.9173 13.5028 16.9584 13.7113 16.9203C13.9229 16.8817 14.1219 16.7616 14.2498 16.6021C14.377 16.4437 14.428 16.2555 14.3674 16.0729C14.3065 15.8888 14.1232 15.6827 13.7206 15.5103C13.6153 15.4674 13.5062 15.4328 13.3927 15.3991C13.3621 15.3901 13.3309 15.381 13.2994 15.3719C13.2155 15.3474 13.1291 15.3222 13.0445 15.2945C12.9861 15.2754 12.9283 15.2573 12.871 15.2394C12.7144 15.1904 12.5617 15.1427 12.4147 15.0787C12.0949 14.9742 11.8186 14.7735 11.627 14.5064C11.4345 14.2382 11.3377 13.9174 11.3508 13.5921C11.3519 12.7992 11.8722 12.2529 12.5318 11.9605Z" fill="#3A3B7B"/>
<path id="Vector_13" d="M20.8495 11.876C20.7223 11.8164 20.5816 11.7881 20.4402 11.7937C20.2987 11.7992 20.1609 11.8385 20.0393 11.908C19.9184 11.977 19.8172 12.0736 19.7446 12.1893C19.6781 12.2867 19.6321 12.3956 19.6091 12.51C19.5862 12.6243 19.5867 12.7417 19.6107 12.8557C19.6344 13.0022 19.6607 13.1447 19.6866 13.2853C19.7296 13.5178 19.7714 13.7451 19.7989 13.9769L19.8 13.9828C19.8627 14.3463 19.8956 14.7139 19.8985 15.0823L19.8988 15.0875C19.9203 15.4854 19.779 15.8754 19.5054 16.175L19.501 16.1803C19.412 16.2899 19.293 16.3734 19.1572 16.4218C19.0215 16.4701 18.8744 16.4812 18.7325 16.4538C18.5906 16.4265 18.4594 16.3618 18.3536 16.267C18.2478 16.1721 18.1714 16.0506 18.1333 15.9166C18.052 15.6341 18.005 15.3435 17.993 15.0508L18.1319 12.9283C18.134 12.9006 18.1363 12.8722 18.1387 12.8435C18.144 12.779 18.1494 12.7134 18.1516 12.6521C18.1549 12.562 18.1521 12.4693 18.1302 12.3816C18.1078 12.292 18.0653 12.2067 17.9897 12.1341C17.915 12.0622 17.814 12.0091 17.687 11.973C17.4573 11.9092 17.263 11.9112 17.1012 11.9772C16.9392 12.0431 16.8283 12.1655 16.7498 12.3069C16.6719 12.4471 16.6218 12.6131 16.584 12.7793C16.5559 12.9027 16.5333 13.0322 16.5118 13.1555C16.5044 13.198 16.4972 13.2397 16.4898 13.2802L16.4896 13.2814C16.3749 13.9574 16.3407 14.6438 16.3878 15.3273C16.3966 15.6967 16.4768 16.0613 16.6245 16.4024C16.7911 16.8427 17.0929 17.2241 17.49 17.4964C17.888 17.7692 18.3629 17.9196 18.8518 17.9275C19.3408 17.9354 19.8207 17.8006 20.2281 17.5409C20.6348 17.2815 20.9499 16.9098 21.1319 16.475C21.3865 15.921 21.5061 15.3185 21.4814 14.7135C21.4664 14.2718 21.4414 13.8267 21.4165 13.3839C21.4042 13.1666 21.392 12.9499 21.3811 12.7344C21.3756 12.5184 21.3014 12.3091 21.1683 12.1348C21.086 12.0245 20.9765 11.9356 20.8495 11.876Z" fill="#3A3B7B"/>
<path id="Vector_14" d="M25.3522 15.2041C25.3393 15.2198 25.3257 15.2361 25.3115 15.253C25.208 14.6801 25.1121 14.1074 25.016 13.5338C24.9816 13.328 24.947 13.1213 24.9121 12.9152L24.9082 12.8922L24.8955 12.8724C24.8715 12.835 24.8691 12.7983 24.8691 12.7201V12.7111L24.8677 12.7022C24.8417 12.5407 24.7656 12.3905 24.6494 12.2711C24.5335 12.152 24.3829 12.0692 24.2174 12.0332C24.0521 11.9941 23.8783 12.0027 23.7181 12.058C23.5582 12.1132 23.4189 12.2124 23.3175 12.3432C23.2332 12.4435 23.1641 12.5548 23.1123 12.6737C22.9947 12.9299 22.8762 13.1867 22.7573 13.4442L22.7552 13.4487C22.4584 14.0915 22.1596 14.7387 21.8694 15.391L21.8685 15.3931C21.6904 15.8161 21.5434 16.2617 21.3969 16.706C21.3676 16.7947 21.3384 16.8833 21.3089 16.9717C21.256 17.1119 21.2328 17.2608 21.2408 17.4097C21.2312 17.543 21.2644 17.6759 21.3361 17.7906C21.4092 17.9076 21.5187 17.9996 21.6491 18.0538C21.7874 18.112 21.9419 18.1243 22.0883 18.0889C22.2344 18.0535 22.3642 17.9726 22.4571 17.8588C22.5758 17.7187 22.678 17.5658 22.7612 17.4038C23.007 16.9213 23.2419 16.4329 23.4757 15.9466C23.5662 15.7585 23.6541 15.59 23.7542 15.4066C23.761 15.4292 23.768 15.4513 23.7753 15.4734C23.8801 15.9163 24.0571 16.3406 24.2996 16.7306C24.3455 16.8133 24.4094 16.8855 24.487 16.9423C24.5655 16.9998 24.6561 17.0402 24.7525 17.0607C24.8489 17.0812 24.9489 17.0813 25.0453 17.061C25.1417 17.0407 25.2326 17.0003 25.3111 16.9431L25.4666 16.8313L26.6735 15.8557L26.6021 16.2922C26.5042 16.8922 26.4069 17.4872 26.3037 18.0824C26.2361 18.3462 26.2362 18.6217 26.3039 18.8855C26.3333 19.0339 26.4081 19.1705 26.5187 19.2779C26.6303 19.3862 26.7733 19.4598 26.929 19.4892C27.0847 19.5185 27.246 19.5023 27.392 19.4425C27.5359 19.3836 27.6582 19.2852 27.7437 19.1597C27.9427 18.9227 28.0666 18.6359 28.1006 18.3332C28.1518 17.9058 28.2097 17.4726 28.2676 17.0395C28.3343 16.5403 28.401 16.0413 28.4573 15.5518L28.4575 15.5503C28.5117 15.0145 28.5379 14.4765 28.5361 13.9382C28.548 13.7681 28.5039 13.5986 28.4098 13.4538C28.3155 13.3084 28.1757 13.1954 28.0106 13.1308C27.8388 13.0558 27.6464 13.0358 27.4619 13.0737C27.2785 13.1113 27.1126 13.2041 26.9881 13.3384C26.7655 13.536 26.5566 13.7475 26.3629 13.9714L26.3616 13.9729C26.1501 14.2258 25.9401 14.4837 25.7314 14.7399C25.6045 14.8957 25.478 15.0511 25.3522 15.2041Z" fill="#3A3B7B"/>
</g>
<defs>
<clipPath id="clip0_8_394">
<rect width="32.7153" height="20.186" fill="white" transform="translate(0.490402 0.148376)"/>
</clipPath>
</defs>
</svg>
