<svg width="30" height="20" viewBox="0 0 30 20" fill="none" xmlns="http://www.w3.org/2000/svg">
<g id="Logo" clip-path="url(#clip0_8_410)">
<path id="Vector" d="M27.5986 1.43173C27.5986 1.75609 27.8647 2.01904 28.1931 2.01904H28.7877C29.1161 2.01904 29.3822 1.75609 29.3822 1.43173C29.3822 1.10737 29.1161 0.844421 28.7877 0.844421H28.1931C27.8647 0.844421 27.5986 1.10737 27.5986 1.43173Z" fill="#212326"/>
<path id="Vector_2" d="M10.3563 19.6383H13.2446L12.4038 18.8077C12.1808 18.5874 11.8783 18.4637 11.563 18.4637H10.3563C5.7592 18.4637 2.0325 14.7824 2.0325 10.2414C2.0325 5.70029 5.7592 2.01904 10.3563 2.01904H19.8693C24.4664 2.01904 28.1931 5.70029 28.1931 10.2414C28.1931 14.7824 24.4664 18.4637 19.8693 18.4637H16.3107C15.8376 18.4637 15.3839 18.278 15.0494 17.9476L14.0643 16.9745C13.5068 16.4238 12.7506 16.1144 11.9622 16.1144H10.3563C7.07265 16.1144 4.41074 13.485 4.41074 10.2414C4.41074 6.99772 7.07265 4.36827 10.3563 4.36827H19.8693C23.153 4.36827 25.8149 6.99772 25.8149 10.2414C25.8149 13.485 23.153 16.1144 19.8693 16.1144H17.5843C17.1112 16.1144 16.6576 15.9288 16.323 15.5984L15.3379 14.6253C14.7804 14.0746 14.0243 13.7652 13.2359 13.7652H10.3563C8.38615 13.7652 6.78898 12.1875 6.78898 10.2414C6.78898 8.29521 8.38615 6.71751 10.3563 6.71751H19.8693C21.8395 6.71751 23.4366 8.29521 23.4366 10.2414C23.4366 12.1638 21.8782 13.7267 19.9412 13.7645L19.9408 13.7652H19.0707C18.5976 13.7652 18.144 13.5796 17.8094 13.2492L16.8243 12.2761C16.3669 11.8242 15.7757 11.5348 15.1427 11.4455L15.1128 11.416H10.3563C9.69961 11.416 9.16721 10.8901 9.16721 10.2414C9.16721 9.59264 9.69961 9.06674 10.3563 9.06674H19.8693C20.526 9.06674 21.0584 9.59264 21.0584 10.2414C21.0584 10.8901 20.526 11.416 19.8693 11.416H17.491L18.3319 12.2466C18.5549 12.4668 18.8573 12.5906 19.1727 12.5906H19.8693C21.1827 12.5906 22.2475 11.5388 22.2475 10.2414C22.2475 8.94392 21.1827 7.89212 19.8693 7.89212H10.3563C9.04288 7.89212 7.9781 8.94392 7.9781 10.2414C7.9781 11.5388 9.04288 12.5906 10.3563 12.5906H14.7223C15.1953 12.5906 15.649 12.7762 15.9835 13.1066L16.9686 14.0797C17.5261 14.6304 18.2823 14.9398 19.0707 14.9398H20.1666V14.9308C22.655 14.7792 24.6258 12.7376 24.6258 10.2414C24.6258 7.64649 22.4962 5.54289 19.8693 5.54289H10.3563C7.72943 5.54289 5.59986 7.64649 5.59986 10.2414C5.59986 12.8363 7.72943 14.9398 10.3563 14.9398H13.2359C13.7089 14.9398 14.1626 15.1255 14.4971 15.4559L15.4822 16.429C16.0397 16.9797 16.7959 17.2891 17.5843 17.2891H19.8693C23.8097 17.2891 27.004 14.1337 27.004 10.2414C27.004 6.34901 23.8097 3.19366 19.8693 3.19366H10.3563C6.41593 3.19366 3.22162 6.34901 3.22162 10.2414C3.22162 14.1337 6.41593 17.2891 10.3563 17.2891H11.9622C12.4353 17.2891 12.889 17.4747 13.2235 17.8051L14.2086 18.7782C14.7661 19.3289 15.5222 19.6383 16.3107 19.6383H19.8693C25.1231 19.6383 29.3822 15.4311 29.3822 10.2414C29.3822 5.05157 25.1231 0.844421 19.8693 0.844421L10.3563 0.844423C5.10247 0.844424 0.843383 5.05158 0.843384 10.2414C0.843384 15.4311 5.10248 19.6383 10.3563 19.6383Z" fill="#212326"/>
</g>
<defs>
<clipPath id="clip0_8_410">
<rect width="28.5388" height="18.7939" fill="white" transform="translate(0.843384 0.844421)"/>
</clipPath>
</defs>
</svg>
