<svg width="38" height="15" viewBox="0 0 38 15" fill="none" xmlns="http://www.w3.org/2000/svg">
<g id="Logo" clip-path="url(#clip0_8_414)">
<path id="Vector" d="M9.52341 0.932617C8.10988 0.932617 6.75426 1.49414 5.75475 2.49365L2.49277 5.75564C1.49325 6.75515 0.931732 8.11076 0.931732 9.5243C0.931732 12.4678 3.31792 14.854 6.26144 14.854C7.67497 14.854 9.03059 14.2925 10.0301 13.293L12.2864 11.0366C12.2864 11.0366 12.2865 11.0367 12.2864 11.0366L18.8606 4.46243C19.338 3.98507 19.9854 3.7169 20.6605 3.7169C21.7908 3.7169 22.749 4.45353 23.0812 5.47288L25.156 3.39808C24.2095 1.91563 22.5498 0.932617 20.6605 0.932617C19.247 0.932617 17.8914 1.49414 16.8919 2.49365L8.06134 11.3242C7.58398 11.8016 6.93654 12.0697 6.26144 12.0697C4.85563 12.0697 3.71601 10.9301 3.71601 9.5243C3.71601 8.8492 3.98419 8.20176 4.46155 7.7244L7.72351 4.46243C8.20088 3.98507 8.84832 3.7169 9.52341 3.7169C10.6537 3.7169 11.6119 4.45356 11.9441 5.47294L14.0189 3.39813C13.0724 1.91565 11.4127 0.932617 9.52341 0.932617Z" fill="#394149"/>
<path id="Vector_2" d="M19.1984 11.3242C18.7211 11.8016 18.0736 12.0697 17.3986 12.0697C16.2685 12.0697 15.3103 11.3333 14.978 10.3141L12.9033 12.3889C13.8499 13.8711 15.5094 14.854 17.3986 14.854C18.8121 14.854 20.1677 14.2925 21.1672 13.293L29.9977 4.46243C30.4751 3.98507 31.1225 3.7169 31.7976 3.7169C33.2035 3.7169 34.3431 4.85652 34.3431 6.26233C34.3431 6.93742 34.0749 7.58486 33.5975 8.06223L30.3356 11.3242C29.8582 11.8016 29.2108 12.0697 28.5357 12.0697C27.4055 12.0697 26.4473 11.3331 26.1151 10.3139L24.0403 12.3887C24.9868 13.8711 26.6464 14.854 28.5357 14.854C29.9492 14.854 31.3048 14.2925 32.3043 13.293L35.5663 10.031C36.5658 9.03148 37.1273 7.67586 37.1273 6.26233C37.1273 3.31881 34.7412 0.932617 31.7976 0.932617C30.3841 0.932617 29.0285 1.49414 28.029 2.49365L19.1984 11.3242Z" fill="#394149"/>
</g>
<defs>
<clipPath id="clip0_8_414">
<rect width="36.1956" height="13.9214" fill="white" transform="translate(0.931732 0.932617)"/>
</clipPath>
</defs>
</svg>
