<svg width="39" height="22" viewBox="0 0 39 22" fill="none" xmlns="http://www.w3.org/2000/svg">
<g id="Logo" clip-path="url(#clip0_8_418)">
<path id="Vector" d="M38.7813 7.87909C38.7853 7.85006 38.7853 7.82072 38.7813 7.7917C38.785 7.76805 38.785 7.74393 38.7813 7.72023L38.4977 5.6789C38.4568 5.43468 38.3473 5.20642 38.1817 5.01964L38.1331 4.96404L38.044 4.87666L33.1342 0.730472L33.2719 0.865512C33.1592 0.73334 33.0178 0.62762 32.858 0.55614C32.6981 0.484659 32.5239 0.449234 32.3483 0.452478H30.8575C30.6151 0.447769 30.3782 0.523329 30.1851 0.666939C29.9822 0.524194 29.738 0.449021 29.4883 0.452478H27.9975C27.802 0.449368 27.6091 0.49694 27.4384 0.59039C27.2677 0.683841 27.1252 0.819852 27.0253 0.984649C26.8713 1.22003 26.8135 1.50362 26.8633 1.77894L27.0496 3.06568C26.9262 2.99708 26.7864 2.96148 26.6445 2.96244H19.4257C19.1667 2.96403 18.9136 3.03845 18.6965 3.17689C18.4865 3.30574 18.3179 3.49024 18.2104 3.70906L17.6513 3.24043C17.4313 3.04084 17.1409 2.93267 16.8411 2.93861H5.51459C5.25467 2.94325 5.00052 3.01443 4.77733 3.14512C4.47199 3.32033 4.24821 3.60522 4.15346 3.93941L0.556194 15.7346C0.48898 15.929 0.482368 16.1386 0.537205 16.3366C0.592041 16.5347 0.705843 16.7123 0.864072 16.8466C0.905302 16.8809 0.948593 16.9127 0.993706 16.9419C0.993706 16.9419 0.920777 16.8942 0.880267 16.8546L5.79008 21.0087C5.99777 21.1962 6.26932 21.3009 6.55161 21.3026H17.9673C18.228 21.2959 18.4823 21.222 18.7046 21.0881C18.8303 21.0208 18.9428 20.932 19.0368 20.826L19.0773 20.7704L19.1421 20.691L19.1907 20.6036L19.7254 21.0564C19.9302 21.2364 20.1958 21.3354 20.4708 21.3344H31.9108C32.1712 21.3258 32.425 21.252 32.648 21.1199C32.7709 21.0484 32.8827 20.9601 32.9803 20.8578L33.0207 20.8022L33.0855 20.7228C33.12 20.6725 33.1499 20.6194 33.1747 20.5639C33.2011 20.5157 33.2228 20.4652 33.2395 20.413L36.5208 9.64242V9.5471C36.5248 9.51014 36.5248 9.47286 36.5208 9.4359V9.36443C36.5247 9.34073 36.5247 9.31661 36.5208 9.29291C36.5244 9.24269 36.5244 9.19226 36.5208 9.14198H37.5741C37.6657 9.15023 37.7579 9.15023 37.8495 9.14198H37.9224C37.9817 9.12465 38.0388 9.10064 38.0926 9.07052H38.1736L38.3194 8.95932L38.3842 8.91165L38.4977 8.76866V8.72105L38.5787 8.586C38.5742 8.55974 38.5742 8.53285 38.5787 8.50659C38.5744 8.4937 38.5744 8.47976 38.5787 8.46687C38.5959 8.4203 38.6095 8.37248 38.6192 8.32388C38.6154 8.30822 38.6154 8.29187 38.6192 8.27621C38.6153 8.25256 38.6153 8.22839 38.6192 8.20474C38.6192 8.20474 38.7813 7.89496 38.7813 7.87909Z" fill="black"/>
<path id="Vector_2" d="M17.1733 3.84413C17.2163 3.88226 17.2463 3.9324 17.2593 3.98779C17.2724 4.04318 17.2678 4.10115 17.2462 4.1539L13.6571 15.9412C13.6119 16.0698 13.5194 16.1774 13.3978 16.243C13.2988 16.3079 13.1843 16.3462 13.0656 16.3542H1.65804C1.56062 16.3496 1.46832 16.31 1.39877 16.243C1.3574 16.2055 1.32836 16.1567 1.31537 16.103C1.30238 16.0492 1.30604 15.9929 1.32586 15.9412L4.92313 4.1539C4.96457 4.02358 5.05413 3.91312 5.17428 3.84413C5.27487 3.78389 5.38885 3.74846 5.50646 3.74087H16.914C17.0107 3.74178 17.1033 3.7787 17.1733 3.84413ZM11.2183 13.5662L13.3654 6.52882H7.35373L5.21478 13.5662H11.2183ZM28.0623 3.96327C28.1012 4.00761 28.1499 4.04277 28.2046 4.06615C28.2593 4.08953 28.3186 4.10052 28.3783 4.09829H29.8609C29.9174 4.09884 29.973 4.08526 30.0227 4.05886C30.0723 4.03245 30.1142 3.99408 30.1445 3.94738C30.1708 3.9109 30.1894 3.8696 30.1992 3.82593C30.2089 3.78228 30.2096 3.73714 30.2012 3.69321L29.9095 1.59629C29.8818 1.49924 29.8319 1.40962 29.7638 1.33417C29.7248 1.28983 29.6762 1.25466 29.6215 1.23128C29.5667 1.20791 29.5074 1.19692 29.4477 1.19914H27.9651C27.9086 1.1986 27.853 1.21218 27.8034 1.23858C27.7537 1.26499 27.7118 1.30335 27.6815 1.35006C27.6248 1.46126 27.6005 1.53274 27.6248 1.59629L27.9246 3.69321C27.94 3.79532 27.9882 3.88993 28.0623 3.96327ZM32.7696 1.5804C32.7418 1.48335 32.6919 1.39373 32.6237 1.31828C32.5864 1.2741 32.5392 1.23895 32.4858 1.21553C32.4325 1.19211 32.3743 1.18107 32.3158 1.18326H30.8251C30.7696 1.1817 30.7146 1.19491 30.6661 1.22148C30.6176 1.24805 30.5774 1.28699 30.5496 1.33417C30.4957 1.40464 30.4724 1.49315 30.4848 1.5804L30.7845 3.67732C30.8034 3.77835 30.8511 3.87203 30.9223 3.94738C30.9619 3.99086 31.0107 4.02543 31.0652 4.04874C31.1198 4.07204 31.1788 4.08353 31.2383 4.0824H32.729C32.7844 4.08312 32.839 4.06957 32.8873 4.04308C32.9357 4.01659 32.9761 3.97812 33.0045 3.9315C33.0327 3.89596 33.0524 3.85468 33.0622 3.8107C33.0721 3.76672 33.0717 3.72115 33.0612 3.67732L32.7696 1.5804ZM26.7579 4.75756L26.612 3.72498H19.4256C19.3128 3.73108 19.2036 3.76674 19.1096 3.82824C19.05 3.86014 18.998 3.90436 18.9574 3.95784C18.9169 4.01132 18.8887 4.07279 18.8747 4.13801L18.2751 6.10784C18.2512 6.15706 18.243 6.2123 18.2517 6.26617C18.2604 6.32005 18.2855 6.37006 18.3237 6.40969C18.3921 6.47265 18.4812 6.50935 18.5749 6.51295H27.3089L25.1618 13.5504H16.4522C16.3399 13.5529 16.2305 13.5859 16.1363 13.6456C16.0217 13.717 15.938 13.8273 15.9013 13.9554L15.2936 15.9253C15.2738 15.9758 15.2686 16.0307 15.2786 16.084C15.2886 16.1373 15.3134 16.1868 15.3503 16.2271C15.4165 16.2943 15.5064 16.3341 15.6015 16.3383H27.0415C27.1598 16.3283 27.2738 16.2901 27.3736 16.2271C27.4933 16.1612 27.583 16.0534 27.6248 15.9253L30.9142 5.1547H27.2116C27.1528 5.15584 27.0945 5.14515 27.0402 5.12329C26.9858 5.10143 26.9366 5.06886 26.8957 5.02761C26.8287 4.95558 26.7813 4.86817 26.7579 4.77344V4.75756Z" fill="white"/>
</g>
<defs>
<clipPath id="clip0_8_418">
<rect width="38.2838" height="20.8821" fill="white" transform="translate(0.500427 0.452271)"/>
</clipPath>
</defs>
</svg>
